<?xml version="1.0" encoding="UTF-8"?><svg id="a" xmlns="http://www.w3.org/2000/svg" viewBox="0 0 1280 200"><defs><style>.b{stroke-width:.63px;}.b,.c,.d,.e,.f,.g,.h{fill:none;stroke:#00032a;stroke-miterlimit:10;}.i{fill:#00032a;}.c{stroke-width:2.84px;}.d{stroke-width:3.57px;}.e{stroke-width:2.1px;}.f{stroke-width:1.37px;}.g{stroke-width:5.04px;}.h{stroke-width:4.31px;}</style></defs><g><path class="b" d="M1286,79.54s-230.36,168.8-395,90.8c-170.12-80.6-376,44.67-486,4-95.43-35.28-101.25-75.56-171.29-80.45S34.36,82.7-14.07,39.46"/><path class="f" d="M1286,71.71s-217.84,157.77-395.64,80.83c-182.36-79.1-360.34,33.3-470.65,2.71-97.88-27.14-102.75-68.51-202.03-66.43-63.08-3.1-183.32-7.27-231.76-50.51"/><path class="e" d="M1286,63.89s-205.32,146.74-396.29,70.87c-194.61-77.6-344.81,22.14-455.29,1.41-100.45-18.84-104.25-61.46-232.77-52.41-56.13-1.31-167.3-3.36-215.74-46.59"/><path class="c" d="M1286,56.07s-192.81,135.71-396.93,60.91c-206.86-76.1-329.37,11.21-439.94,.12-103.09-10.34-105.76-54.41-263.51-38.39-49.17,.49-151.28,.56-199.72-42.68"/><path class="d" d="M1286,48.24s-180.29,124.68-397.57,50.94c-219.11-74.6-313.95,.52-424.59-1.17-105.75-1.62-107.26-47.36-294.25-24.36-42.21,2.28-135.26,4.47-183.7-38.77"/><path class="h" d="M1286,40.42s-167.77,113.65-398.21,40.98c-231.35-73.1-298.49-9.95-409.23-2.46-108.39,7.33-108.76-40.32-324.99-10.34-35.25,4.07-119.24,8.39-167.68-34.85"/><path class="g" d="M1286,32.59s-155.26,102.61-398.86,31.02-282.95-20.24-393.88-3.76-110.27-33.27-355.73,3.68c-28.3,5.87-103.22,12.3-151.66-30.94"/></g><path class="i" d="M1286.03,32.59s-155.26,102.61-398.86,31.02c-243.6-71.6-282.95-20.24-393.88-3.76-110.93,16.48-110.27-33.27-355.73,3.68-28.3,5.87-103.22,12.3-151.66-30.94V-40.8H1286.03V32.59Z"/></svg>