<?xml version="1.0" encoding="UTF-8"?><svg xmlns="http://www.w3.org/2000/svg" xmlns:xlink="http://www.w3.org/1999/xlink" viewBox="0 0 209.16 209.16"><defs><style>.f{fill:#2f1f45;}.g{fill:#2a2141;}.h{stroke-width:3.68px;}.h,.i{fill:none;stroke:#4ff;stroke-miterlimit:10;}.j{fill:url(#d);}.k{fill:url(#e);}.i{stroke-width:1.04px;}</style><linearGradient id="d" x1="-4637.56" y1="-12470.8" x2="-4457.63" y2="-12470.8" gradientTransform="translate(-12366.22 4699.49) rotate(90)" gradientUnits="userSpaceOnUse"><stop offset="0" stop-color="#2660de"/><stop offset="1" stop-color="#90ffff"/></linearGradient><linearGradient id="e" x1="6.94" y1="497.32" x2="186.21" y2="497.32" gradientTransform="translate(601.9 -39.96) rotate(90)" gradientUnits="userSpaceOnUse"><stop offset="0" stop-color="#e60065"/><stop offset="1" stop-color="#2660de"/></linearGradient></defs><g id="a"/><g id="b"><g id="c"><g><rect class="g" x="0" y="0" width="209.16" height="209.16" rx="11.28" ry="11.28" transform="translate(0 209.16) rotate(-90)"/><rect class="j" x="60.29" y="61.93" width="88.57" height="179.93" rx="6.81" ry="6.81" transform="translate(256.47 47.31) rotate(90)"/><rect class="k" x="62.31" y="-33.02" width="84.54" height="179.27" rx="6.64" ry="6.64" transform="translate(47.96 161.19) rotate(-90)"/><g><polygon class="f" points="171.39 139.36 169.02 131.37 164.76 127.91 143.79 109.15 142.68 106.16 136.06 101.74 131.18 83.62 114.63 70.38 108.01 69.43 104.07 73.85 98.39 69.43 91.46 69.43 79.48 75.11 77.75 81.89 74.91 81.89 72.7 89.45 72.7 92.13 65.77 104.74 62.78 106.16 48.28 119.08 47.33 129.48 43.55 130.74 37.77 139.36 171.39 139.36"/><polyline class="i" points="155.51 138.28 164.76 128.06 133.77 138.28"/><path class="i" d="M92.64,123.47c.71,2.48,5.45,14.82,5.45,14.82"/><line class="i" x1="65.77" y1="104.74" x2="56.11" y2="125.59"/><polyline class="i" points="76.65 82.02 80.58 106.71 71.71 122.05 69.94 138.28"/><path class="i" d="M133.77,123.47v14.82l-10.8-14.82-1.29-1.77s-4.93-15.96-5.29-17.05c-.37-1.09,2.85-19.12,2.85-19.12l-5.7-15.01"/><polyline class="i" points="80.58 106.71 101.86 99.71 117.02 104.4 134.97 101.88 133.77 123.47 121.68 121.34"/><polyline class="i" points="97.3 69.57 92.64 78.08 101.86 99.71 92.64 123.47 76.72 139.72"/><polyline class="i" points="47.18 119.21 56.11 125.59 61.07 139.72"/><polygon class="h" points="171.39 139.51 169.02 131.53 164.76 128.06 143.79 109.3 142.68 106.31 136.06 101.9 131.18 83.77 114.63 70.53 108.01 69.59 104.07 74 98.39 69.59 91.46 69.59 79.48 75.26 77.75 82.04 74.91 82.04 72.7 89.6 72.7 92.28 65.77 104.89 62.78 106.31 48.28 119.23 47.33 129.64 43.55 130.9 37.77 139.51 171.39 139.51"/></g></g></g></g></svg>